{"title":"Wind Chill 2007 DVDRip Xvid BigPerm LKRG","uid":6139844,"size":763396841,"categoryP":"video","categoryS":"movies","magnet":"?xt=urn:btih:34932c879f452cf2a0959f8b7d199bc50ea87e42&amp;dn=Wind+Chill+2007+DVDRip+Xvid+BigPerm+LKRG&amp;tr=udp%3A%2F%2Ftracker.openbittorrent.com%3A80&amp;tr=udp%3A%2F%2Fopen.demonii.com%3A1337&amp;tr=udp%3A%2F%2Ftracker.coppersurfer.tk%3A6969&amp;tr=udp%3A%2F%2Fexodus.desync.com%3A6969","seeders":0,"leechers":0,"uploader":".BONE.","files":2,"time":1296461325,"description":"Plot\n\nTwo college students share a ride home for the holidays. When they break down on a deserted stretch\nof road theyre preyed upon by the ghosts of people who have died there.\n\nCast\n\nEmily Blunt ... Girl\nAshton Holmes ... Guy\nMartin Donovan ... Highway Patrolman\nNed Bellamy ... Snowplow Driver\nIan A. Wallace ... Priest\nDonny James Lucas ... Stranger\nChelan Simmons ... Blonde Girl\nDarren Moore ... Clerk\nLinden Banks ... Proctor\n &lt;a href=&quot;\nhttp://www.imdb.com/title/tt0486051/&quot; rel=&quot;nofollow&quot; target=&quot;_NEW&quot;&gt;\nhttp://www.imdb.com/title/tt0486051/&lt;/a&gt;\n\nGeneral\nComplete name : Wind Chill 2007 DVDRip Xvid BigPerm LKRG\\WC_LKRG.avi\nFormat : AVI\nFormat/Info : Audio Video Interleave\nFile size : 728 MiB\nDuration : 1h 30mn\nOverall bit rate : 1 122 Kbps\n\nVideo\nID : 0\nFormat : MPEG-4 Visual\nFormat profile : Advanced Simple@L5\nFormat settings, BVOP : Yes\nFormat settings, QPel : No\nFormat settings, GMC : No warppoints\nFormat settings, Matrix : Default (H.263)\nCodec ID : XVID\nCodec ID/Hint : XviD\nDuration : 1h 30mn\nBit rate : 669 Kbps\nWidth : 704 pixels\nHeight : 396 pixels\nDisplay aspect ratio : 16:9\nFrame rate : 23.976 fps\nColor space : YUV\nChroma subsampling : 4:2:0\nBit depth : 8 bits\nScan type : Progressive\nCompression mode : Lossy\nBits/(Pixel*Frame) : 0.100\nStream size : 434 MiB (60%)\nWriting library : XviD 1.2.1 (UTC 2008-12-04)\n\nAudio\nID : 1\nFormat : AC-3\nFormat/Info : Audio Coding 3\nMode extension : CM (complete main)\nCodec ID : 2000\nDuration : 1h 30mn\nBit rate mode : Constant\nBit rate : 448 Kbps\nChannel(s) : 6 channels\nChannel positions : Front: L C R, Side: L R, LFE\nSampling rate : 48.0 KHz\nBit depth : 16 bits\nCompression mode : Lossy\nVideo delay : 42ms\nStream size : 291 MiB (40%)\nAlignment : Split accross interleaves\nInterleave, duration : 500 ms (11.99 video frames)\nInterleave, preload duration : 500 ms\n &lt;a href=&quot;\nhttp://www.grinshare.com/img/XJ09SI.png&quot; rel=&quot;nofollow&quot; target=&quot;_NEW&quot;&gt;\nhttp://www.grinshare.com/img/XJ09SI.png&lt;/a&gt;\n &lt;a href=&quot;\nhttp://www.grinshare.com/img/1TM4LK.png&quot; rel=&quot;nofollow&quot; target=&quot;_NEW&quot;&gt;\nhttp://www.grinshare.com/img/1TM4LK.png&lt;/a&gt;\n &lt;a href=&quot;\nhttp://www.grinshare.com/img/VPN3LL.png&quot; rel=&quot;nofollow&quot; target=&quot;_NEW&quot;&gt;\nhttp://www.grinshare.com/img/VPN3LL.png&lt;/a&gt;\n &lt;a href=&quot;\nhttp://www.grinshare.com/img/HDMUMY.png&quot; rel=&quot;nofollow&quot; target=&quot;_NEW&quot;&gt;\nhttp://www.grinshare.com/img/HDMUMY.png&lt;/a&gt;\n\n","torrent":{"xt":"urn:btih:34932c879f452cf2a0959f8b7d199bc50ea87e42","amp;dn":"Wind+Chill+2007+DVDRip+Xvid+BigPerm+LKRG","amp;tr":["udp%3A%2F%2Ftracker.openbittorrent.com%3A80","udp%3A%2F%2Fopen.demonii.com%3A1337","udp%3A%2F%2Ftracker.coppersurfer.tk%3A6969","udp%3A%2F%2Fexodus.desync.com%3A6969"],"infoHash":"34932c879f452cf2a0959f8b7d199bc50ea87e42","infoHashBuffer":{"type":"Buffer","data":[52,147,44,135,159,69,44,242,160,149,159,139,125,25,155,197,14,168,126,66]},"announce":[],"urlList":[]}}